<svg width="60" height="60" viewBox="0 0 60 60" fill="none" xmlns="http://www.w3.org/2000/svg">
<path d="M47.5 22.5V42.5C47.5 47.214 47.5 49.571 46.0355 51.0355C44.571 52.5 42.214 52.5 37.5 52.5H35H25H22.5C17.786 52.5 15.4289 52.5 13.9645 51.0355C12.5 49.571 12.5 47.214 12.5 42.5V22.5" stroke="#009833" stroke-width="4" stroke-linejoin="round"/>
<path d="M7.5 27.4999L18.75 17.4999L26.6782 10.4526C28.5725 8.76872 31.4275 8.76872 33.3218 10.4526L41.25 17.4999L52.5 27.4999" stroke="#009833" stroke-width="4" stroke-linecap="round" stroke-linejoin="round"/>
<path d="M25 52.5V42.5C25 39.7385 27.2385 37.5 30 37.5C32.7615 37.5 35 39.7385 35 42.5V52.5" stroke="#009833" stroke-width="4" stroke-linecap="round" stroke-linejoin="round"/>
</svg>
