<svg width="90" height="90" viewBox="0 0 90 90" fill="none" xmlns="http://www.w3.org/2000/svg">
<path d="M15.861 76.8617C15.407 76.8696 14.9578 76.7672 14.5519 76.5636C14.146 76.3603 13.7954 76.0615 13.5301 75.6928C13.2648 75.3246 13.0926 74.8971 13.0283 74.4478C12.964 73.9982 13.0096 73.5396 13.161 73.1117L19.161 53.4242C17.8551 50.0391 17.1937 46.4398 17.211 42.8117C17.205 38.8206 17.9955 34.8685 19.536 31.1867C21.0472 27.6635 23.2101 24.4573 25.911 21.7367C28.6254 19.0107 31.8489 16.8446 35.3985 15.3617C39.0694 13.8032 43.0167 13 47.0048 13C50.9929 13 54.9402 13.8032 58.611 15.3617C63.9889 17.6653 68.5759 21.4912 71.8077 26.3683C75.039 31.2455 76.7738 36.9612 76.7985 42.8117C76.7749 50.7133 73.6354 58.2865 68.061 63.8867C65.3404 66.5875 62.1342 68.7505 58.611 70.2617C51.5202 73.2313 43.5604 73.3656 36.3735 70.6367L16.686 76.6367C16.4227 76.7492 16.1451 76.825 15.861 76.8617ZM46.986 18.7367C42.2363 18.7572 37.5968 20.1671 33.6386 22.7925C29.6805 25.4179 26.5771 29.144 24.711 33.5117C22.2316 39.5158 22.2316 46.2576 24.711 52.2617C24.9344 52.8797 24.9344 53.5562 24.711 54.1742L20.0985 69.8117L35.661 65.0867C36.2789 64.8632 36.9555 64.8632 37.5735 65.0867C40.545 66.3205 43.731 66.9553 46.9485 66.9553C50.166 66.9553 53.352 66.3205 56.3235 65.0867C59.2515 63.8541 61.9073 62.056 64.1393 59.7951C66.3709 57.5342 68.1349 54.8552 69.3297 51.9118C70.5248 48.9685 71.127 45.8181 71.1023 42.6411C71.0775 39.4645 70.4265 36.3238 69.186 33.3992C67.3238 29.0527 64.2285 25.3474 60.2832 22.7414C56.3374 20.1355 51.7144 18.7431 46.986 18.7367Z" fill="#009833"/>
</svg>
