<svg width="220" height="107" viewBox="0 0 220 107" fill="none" xmlns="http://www.w3.org/2000/svg">
<path d="M26.8293 53.5046C26.8293 40.6212 38.005 30.1772 51.791 30.1772C65.5769 30.1772 76.7527 40.6212 76.7527 53.5046C76.7527 66.3879 65.5769 76.8319 51.791 76.8319C38.005 76.8319 26.8293 66.3879 26.8293 53.5046Z" fill="black"/>
<path fill-rule="evenodd" clip-rule="evenodd" d="M51.0427 30.1772C50.9169 39.6339 50.2263 44.9489 46.431 48.4956C42.636 52.0424 36.9485 52.6882 26.8293 52.8056V54.2036C36.9485 54.3213 42.636 54.9667 46.431 58.5135C50.2263 62.0603 50.9169 67.3753 51.0427 76.8319H52.5392C52.6643 67.3753 53.3557 62.0603 57.1509 58.5135C60.9459 54.9665 66.6335 54.3213 76.7527 54.2036V52.8056C66.6335 52.6879 60.9459 52.0424 57.1509 48.4956C53.3549 44.9489 52.6643 39.6339 52.5392 30.1772H51.0427Z" fill="white"/>
<path d="M93.5961 74.733V67.4046H113.715V74.733H119.826V62.6535H116.311V32.2776H93.3259L92.6774 49.7148C92.4606 55.3754 91.8114 59.9748 90.0809 62.6535H87.4846V74.733H93.5961ZM98.4098 50.5235L98.8967 37.0287H109.767V62.6535H96.2468C97.3822 60.2781 98.1938 56.1841 98.4098 50.5235Z" fill="black"/>
<path d="M130.808 63.1451C127.509 63.1451 124.264 62.0332 122.533 60.82V65.7228C123.777 66.6831 126.914 67.896 131.565 67.896C138.434 67.896 142.057 65.0152 142.057 59.9103C142.057 56.9285 140.056 54.9067 136.487 54.1991C139.84 53.1883 141.246 50.9643 141.246 48.1339C141.246 43.8378 137.622 41.4624 131.781 41.4624C127.563 41.4624 124.805 42.6755 123.237 43.5853V48.4878C124.967 47.4263 127.347 46.2135 130.862 46.2135C133.242 46.2135 134.756 47.2749 134.756 49.1447C134.756 51.1159 133.458 52.1774 130.808 52.1774H126.752V56.7262H130.808C134.107 56.7262 135.405 57.636 135.405 59.8597C135.405 61.8815 133.837 63.1451 130.808 63.1451Z" fill="black"/>
<path d="M166.408 65.6722V60.7697C164.407 62.0331 161.054 63.1451 157.917 63.1451C153.211 63.1451 151.427 61.0728 151.157 56.8273H166.678V53.643C166.678 44.7981 162.514 41.4624 156.078 41.4624C148.237 41.4624 144.505 47.0727 144.505 54.755C144.505 63.5999 149.156 67.896 157.376 67.896C161.487 67.896 164.516 66.8853 166.408 65.6722ZM155.97 46.2135C159.161 46.2135 160.135 48.69 160.135 51.874V52.3796H151.157C151.319 48.3361 152.888 46.2135 155.97 46.2135Z" fill="black"/>
<path d="M186.026 41.9849V52.0429H177.427V41.9849H170.991V67.4075H177.427V56.7937H186.026V67.4075H192.462V41.9849H186.026Z" fill="black"/>
</svg>
