<svg width="65" height="65" viewBox="0 0 65 65" fill="none" xmlns="http://www.w3.org/2000/svg">
<g clip-path="url(#clip0_20_436)">
<path d="M7.02247 6.77083C7.02247 3.03333 10.1685 0 14.0449 0C17.9213 0 21.0674 3.03333 21.0674 6.77083C21.0674 10.5083 17.9213 13.5417 14.0449 13.5417C10.1685 13.5417 7.02247 10.5083 7.02247 6.77083ZM28.0899 24.375V46.0417H22.4719V65H16.8539V46.0417H11.236V65H5.61798V46.0417H0V24.375C0 19.9062 3.79214 16.25 8.42697 16.25H19.6629C24.2978 16.25 28.0899 19.9062 28.0899 24.375ZM50.5618 13.5417C54.4382 13.5417 57.5843 10.5083 57.5843 6.77083C57.5843 3.03333 54.4382 0 50.5618 0C46.6854 0 43.5393 3.03333 43.5393 6.77083C43.5393 10.5083 46.6854 13.5417 50.5618 13.5417ZM58.9888 54.1667V65H53.3708V54.1667H47.7528V65H42.1348V54.1667H36.1517L40.1404 23.3729C40.6742 19.3104 44.2697 16.25 48.5112 16.25H52.6404C56.882 16.25 60.4775 19.3104 61.0112 23.3729L65 54.1667H59.0169H58.9888Z" fill="#009833"/>
</g>
<defs>
<clipPath id="clip0_20_436">
<rect width="65" height="65" fill="white"/>
</clipPath>
</defs>
</svg>
