<svg width="50" height="50" viewBox="0 0 50 50" fill="none" xmlns="http://www.w3.org/2000/svg">
<path d="M25.0235 20.7197C27.4107 20.711 29.312 18.7934 29.3033 16.4011C29.2946 14.0077 27.3892 12.1034 25.001 12.1013C22.5928 12.0988 20.6696 14.0384 20.688 16.4532C20.7059 18.8369 22.6286 20.7284 25.0235 20.7197Z" fill="black"/>
<path d="M25 0C11.1928 0 0 11.1933 0 25C0 38.8066 11.1928 50 25 50C38.8072 50 50 38.8066 50 25C50 11.1933 38.8072 0 25 0ZM25.0358 7.60256C29.9054 7.61586 33.8138 11.599 33.7887 16.5222C33.7642 21.332 29.7918 25.2302 24.9304 25.2138C20.1187 25.1974 16.1724 21.2082 16.201 16.3887C16.2281 11.5166 20.1765 7.58926 25.0358 7.60256ZM34.8987 28.6737C33.822 29.779 32.5258 30.579 31.0864 31.1371C29.7258 31.6645 28.2348 31.9299 26.7586 32.1069C26.9821 32.3494 27.087 32.4685 27.2261 32.6077C29.2292 34.6215 31.2419 36.6251 33.2384 38.6445C33.9187 39.333 34.0604 40.1862 33.6859 40.9857C33.2772 41.8604 32.3601 42.4353 31.4604 42.3734C30.8905 42.334 30.446 42.0511 30.0517 41.6537C28.5396 40.1325 26.999 38.6384 25.5187 37.0885C25.0864 36.6373 24.8798 36.7233 24.4987 37.1151C22.978 38.6813 21.4322 40.2225 19.8777 41.7555C19.1795 42.444 18.3488 42.5688 17.5386 42.1749C16.6777 41.7586 16.1304 40.8793 16.1724 39.9949C16.202 39.3985 16.4957 38.9412 16.9059 38.533C18.889 36.554 20.866 34.5688 22.8435 32.5852C22.9749 32.4537 23.0967 32.3141 23.2875 32.1095C20.5903 31.8276 18.1581 31.1637 16.0757 29.5355C15.8169 29.333 15.5504 29.1376 15.3151 28.9105C14.4031 28.0353 14.3115 27.0322 15.0322 26C15.6496 25.1161 16.6849 24.8798 17.7616 25.3877C17.9703 25.4854 18.1688 25.6092 18.3591 25.7402C22.2394 28.4066 27.5703 28.4798 31.466 25.8593C31.8517 25.5647 32.2645 25.3222 32.7427 25.2C33.6716 24.9606 34.5391 25.3028 35.0373 26.1161C35.6077 27.0455 35.601 27.9519 34.8987 28.6737Z" fill="black"/>
</svg>
