<svg width="67" height="66" viewBox="0 0 67 66" fill="none" xmlns="http://www.w3.org/2000/svg">
<g clip-path="url(#clip0_18_375)">
<path d="M52.3894 23.0722V19.1854C52.3894 14.1181 50.3638 9.25836 46.7582 5.67522C43.1526 2.09209 38.2624 0.0791016 33.1633 0.0791016C28.0641 0.0791016 23.1739 2.09209 19.5683 5.67522C15.9627 9.25836 13.9371 14.1181 13.9371 19.1854V23.0722C11.4908 24.1332 9.40872 25.8796 7.94535 28.0978C6.48198 30.316 5.70078 32.9099 5.69727 35.5623V51.9392C5.70163 55.5574 7.14989 59.0261 9.72438 61.5846C12.2989 64.143 15.7894 65.5822 19.4303 65.5866H46.8962C50.5371 65.5822 54.0276 64.143 56.6021 61.5846C59.1766 59.0261 60.6249 55.5574 60.6292 51.9392V35.5623C60.6257 32.9099 59.8445 30.316 58.3812 28.0978C56.9178 25.8796 54.8357 24.1332 52.3894 23.0722ZM19.4303 19.1854C19.4303 15.5659 20.8771 12.0947 23.4526 9.53528C26.028 6.9759 29.521 5.53806 33.1633 5.53806C36.8055 5.53806 40.2985 6.9759 42.8739 9.53528C45.4494 12.0947 46.8962 15.5659 46.8962 19.1854V21.9149H19.4303V19.1854ZM55.136 51.9392C55.136 54.1109 54.2679 56.1936 52.7227 57.7293C51.1774 59.2649 49.0816 60.1276 46.8962 60.1276H19.4303C17.2449 60.1276 15.1491 59.2649 13.6038 57.7293C12.0586 56.1936 11.1905 54.1109 11.1905 51.9392V35.5623C11.1905 33.3906 12.0586 31.3078 13.6038 29.7722C15.1491 28.2366 17.2449 27.3739 19.4303 27.3739H46.8962C49.0816 27.3739 51.1774 28.2366 52.7227 29.7722C54.2679 31.3078 55.136 33.3906 55.136 35.5623V51.9392Z" fill="#009833"/>
<path d="M33.1636 38.2918C32.4351 38.2918 31.7365 38.5794 31.2215 39.0913C30.7064 39.6031 30.417 40.2974 30.417 41.0213V46.4802C30.417 47.2041 30.7064 47.8984 31.2215 48.4103C31.7365 48.9222 32.4351 49.2097 33.1636 49.2097C33.892 49.2097 34.5906 48.9222 35.1057 48.4103C35.6208 47.8984 35.9102 47.2041 35.9102 46.4802V41.0213C35.9102 40.2974 35.6208 39.6031 35.1057 39.0913C34.5906 38.5794 33.892 38.2918 33.1636 38.2918Z" fill="#009833"/>
</g>
<defs>
<clipPath id="clip0_18_375">
<rect width="65.9184" height="65.5075" fill="white" transform="translate(0.204102 0.0791016)"/>
</clipPath>
</defs>
</svg>
