<svg width="60" height="60" viewBox="0 0 60 60" fill="none" xmlns="http://www.w3.org/2000/svg">
<g clip-path="url(#clip0_20_451)">
<path d="M32.5 2.50009C32.5 1.83704 32.7634 1.20116 33.2322 0.732319C33.701 0.263478 34.3369 8.61692e-05 35 8.61692e-05C41.6281 0.00736516 47.9828 2.64362 52.6696 7.33046C57.3564 12.0173 59.9927 18.3719 60 25.0001C60 25.6631 59.7366 26.299 59.2677 26.7679C58.7989 27.2367 58.163 27.5001 57.5 27.5001C56.8369 27.5001 56.201 27.2367 55.7322 26.7679C55.2634 26.299 55 25.6631 55 25.0001C54.994 19.6976 52.885 14.614 49.1355 10.8645C45.3861 7.11509 40.3025 5.00604 35 5.00009C34.3369 5.00009 33.701 4.73669 33.2322 4.26785C32.7634 3.79901 32.5 3.16313 32.5 2.50009ZM35 15.0001C37.6521 15.0001 40.1957 16.0537 42.071 17.929C43.9464 19.8044 45 22.3479 45 25.0001C45 25.6631 45.2634 26.299 45.7322 26.7679C46.201 27.2367 46.8369 27.5001 47.5 27.5001C48.163 27.5001 48.7989 27.2367 49.2677 26.7679C49.7366 26.299 50 25.6631 50 25.0001C49.996 21.0231 48.4144 17.2101 45.6022 14.3979C42.79 11.5857 38.977 10.0041 35 10.0001C34.3369 10.0001 33.701 10.2635 33.2322 10.7323C32.7634 11.2012 32.5 11.837 32.5 12.5001C32.5 13.1631 32.7634 13.799 33.2322 14.2679C33.701 14.7367 34.3369 15.0001 35 15.0001ZM57.7325 41.8476C59.1812 43.3004 59.9948 45.2684 59.9948 47.3201C59.9948 49.3718 59.1812 51.3398 57.7325 52.7926L55.4575 55.4151C34.9825 75.0176 -14.8425 25.2051 4.45746 4.66509L7.33246 2.16509C8.78689 0.756779 10.7373 -0.0222911 12.7617 -0.00357673C14.7862 0.0151377 16.7218 0.830132 18.15 2.26509C18.2275 2.34259 22.86 8.36009 22.86 8.36009C24.2345 9.80416 24.9997 11.7224 24.9965 13.7161C24.9932 15.7098 24.2218 17.6255 22.8425 19.0651L19.9475 22.7051C21.5496 26.5979 23.9051 30.1357 26.8787 33.1153C29.8524 36.0949 33.3854 38.4576 37.275 40.0676L40.9375 37.1551C42.3772 35.7769 44.2926 35.0063 46.2857 35.0035C48.2788 35.0007 50.1963 35.7659 51.64 37.1401C51.64 37.1401 57.655 41.7701 57.7325 41.8476ZM54.2925 45.4826C54.2925 45.4826 48.31 40.8801 48.2325 40.8026C47.7174 40.2919 47.0215 40.0054 46.2962 40.0054C45.5709 40.0054 44.875 40.2919 44.36 40.8026C44.2925 40.8726 39.25 44.8901 39.25 44.8901C38.9102 45.1606 38.5058 45.3379 38.0766 45.4045C37.6474 45.4711 37.2083 45.4248 36.8025 45.2701C31.7636 43.394 27.1868 40.4569 23.3821 36.6578C19.5773 32.8586 16.6335 28.2862 14.75 23.2501C14.583 22.8387 14.5285 22.3903 14.5922 21.9509C14.6559 21.5116 14.8355 21.0971 15.1125 20.7501C15.1125 20.7501 19.13 15.7051 19.1975 15.6401C19.7081 15.1251 19.9947 14.4291 19.9947 13.7038C19.9947 12.9785 19.7081 12.2826 19.1975 11.7676C19.12 11.6926 14.5175 5.70509 14.5175 5.70509C13.9947 5.23635 13.3125 4.98532 12.6106 5.00345C11.9087 5.02158 11.2403 5.30749 10.7425 5.80259L7.86746 8.30259C-6.23754 25.2626 36.94 66.0451 51.8025 52.0001L54.08 49.3751C54.6137 48.8807 54.9342 48.1982 54.9739 47.4718C55.0135 46.7454 54.7692 46.0321 54.2925 45.4826Z" fill="#009833"/>
</g>
<defs>
<clipPath id="clip0_20_451">
<rect width="60" height="60" fill="white"/>
</clipPath>
</defs>
</svg>
