<svg width="50" height="50" viewBox="0 0 50 50" fill="none" xmlns="http://www.w3.org/2000/svg">
<path d="M34.5656 15.6875C34.575 15.6875 34.5875 15.6875 34.6 15.6875C34.9266 15.6875 35.2297 15.7891 35.4781 15.9641L35.4734 15.9609C35.6547 16.1187 35.7766 16.3406 35.8062 16.5906V16.5953C35.8375 16.7859 35.8547 17.0047 35.8547 17.2281C35.8547 17.3297 35.8516 17.4297 35.8437 17.5297V17.5156C35.4922 21.2172 33.9672 30.1937 33.1922 34.3375C32.8641 36.0922 32.2187 36.6797 31.5937 36.7359C30.2359 36.8625 29.2047 35.8391 27.8891 34.9766C25.8297 33.625 24.6656 32.7844 22.6672 31.4672C20.3562 29.9469 21.8547 29.1078 23.1703 27.7422C23.5156 27.3828 29.5016 21.9375 29.6187 21.4437C29.625 21.4141 29.6281 21.3812 29.6281 21.3469C29.6281 21.225 29.5828 21.1141 29.5094 21.0297C29.4281 20.9766 29.3266 20.9469 29.2203 20.9469C29.15 20.9469 29.0828 20.9609 29.0203 20.9844L29.0234 20.9828C28.8172 21.0297 25.5276 23.2036 19.1547 27.5047C18.4594 28.0531 17.5812 28.4 16.625 28.4406H16.6156C15.2609 28.2766 14.0312 27.975 12.8641 27.5453L12.9797 27.5828C11.5141 27.1047 10.35 26.8531 10.45 26.0437C10.5031 25.6229 11.0833 25.1922 12.1906 24.7516C19.0115 21.7797 23.5599 19.8208 25.8359 18.875C28.3469 17.5422 31.2578 16.4453 34.3187 15.7344L34.5641 15.6859L34.5656 15.6875ZM24.8906 1.60156C11.9188 1.63281 1.41406 12.1562 1.41406 25.1328C1.41406 38.1281 11.9484 48.6641 24.9453 48.6641C37.9422 48.6641 48.4766 38.1297 48.4766 25.1328C48.4766 12.1562 37.9719 1.63281 25.0031 1.60156H25C24.9635 1.60156 24.9271 1.60156 24.8906 1.60156Z" fill="black"/>
</svg>
