<svg width="40" height="40" viewBox="0 0 40 40" fill="none" xmlns="http://www.w3.org/2000/svg">
<path d="M13.333 2.5V4.16667H4.99967C4.07921 4.16667 3.33301 4.91287 3.33301 5.83334V7.5C3.33301 8.42047 4.07921 9.16667 4.99967 9.16667H34.9997C35.9202 9.16667 36.6663 8.42047 36.6663 7.5V5.83334C36.6663 4.91287 35.9202 4.16667 34.9997 4.16667H26.6663V2.5C26.6663 1.57953 25.9202 0.833336 24.9997 0.833336H14.9997C14.0792 0.833336 13.333 1.57953 13.333 2.5Z" fill="black"/>
<path d="M6.53809 12.5H33.4608L31.8902 33.7027C31.6968 36.3137 29.5221 38.3333 26.9039 38.3333H13.095C10.4769 38.3333 8.30205 36.3137 8.10865 33.7027L6.53809 12.5Z" fill="black"/>
</svg>
