<svg width="67" height="67" viewBox="0 0 67 67" fill="none" xmlns="http://www.w3.org/2000/svg">
<g clip-path="url(#clip0_18_405)">
<path d="M33.1632 33.4357C36.4225 33.4357 39.6087 32.4753 42.3188 30.6757C45.0288 28.8762 47.141 26.3185 48.3883 23.326C49.6356 20.3336 49.962 17.0407 49.3261 13.8639C48.6903 10.6871 47.1207 7.76903 44.816 5.47869C42.5113 3.18834 39.5749 1.6286 36.3782 0.996691C33.1815 0.364786 29.868 0.689103 26.8567 1.92863C23.8455 3.16816 21.2717 5.26722 19.4609 7.96038C17.6501 10.6535 16.6836 13.8198 16.6836 17.0589C16.688 21.401 18.4256 25.564 21.5152 28.6343C24.6048 31.7046 28.7939 33.4314 33.1632 33.4357ZM33.1632 6.14097C35.3361 6.14097 37.4602 6.78129 39.2669 7.98097C41.0736 9.18064 42.4818 10.8858 43.3133 12.8808C44.1448 14.8758 44.3624 17.071 43.9385 19.1889C43.5146 21.3067 42.4682 23.2521 40.9317 24.779C39.3953 26.3059 37.4377 27.3457 35.3065 27.767C33.1754 28.1883 30.9664 27.9721 28.9589 27.1457C26.9514 26.3194 25.2355 24.92 24.0283 23.1245C22.8211 21.3291 22.1768 19.2182 22.1768 17.0589C22.1768 14.1633 23.3343 11.3863 25.3946 9.33875C27.455 7.29125 30.2494 6.14097 33.1632 6.14097Z" fill="#009833"/>
<path d="M33.1637 38.8948C26.61 38.902 20.3267 41.4924 15.6925 46.0978C11.0583 50.7031 8.45161 56.9472 8.44434 63.4601C8.44434 64.184 8.73371 64.8782 9.2488 65.3901C9.76388 65.902 10.4625 66.1896 11.1909 66.1896C11.9194 66.1896 12.618 65.902 13.1331 65.3901C13.6482 64.8782 13.9375 64.184 13.9375 63.4601C13.9375 58.3928 15.9631 53.533 19.5688 49.9499C23.1744 46.3667 28.0646 44.3537 33.1637 44.3537C38.2628 44.3537 43.1531 46.3667 46.7587 49.9499C50.3643 53.533 52.3899 58.3928 52.3899 63.4601C52.3899 64.184 52.6793 64.8782 53.1944 65.3901C53.7095 65.902 54.4081 66.1896 55.1365 66.1896C55.865 66.1896 56.5636 65.902 57.0787 65.3901C57.5937 64.8782 57.8831 64.184 57.8831 63.4601C57.8758 56.9472 55.2691 50.7031 50.6349 46.0978C46.0007 41.4924 39.7175 38.902 33.1637 38.8948Z" fill="#009833"/>
</g>
<defs>
<clipPath id="clip0_18_405">
<rect width="65.9184" height="65.5075" fill="white" transform="translate(0.204102 0.682129)"/>
</clipPath>
</defs>
</svg>
